<svg width="40" height="40" viewBox="0 0 40 40" fill="none" xmlns="http://www.w3.org/2000/svg">
<g clip-path="url(#clip0_173_700)">
<rect width="40" height="40" fill="#1157FF"/>
<path d="M14.4222 11.6665C15.1919 11.6665 15.9024 11.7254 16.5537 11.9021C17.205 12.0199 17.7378 12.2554 18.2115 12.5499C18.6852 12.8444 19.0404 13.2566 19.2772 13.7866C19.5141 14.3167 19.6325 14.9645 19.6325 15.6712C19.6325 16.4957 19.4549 17.2024 19.0404 17.7325C18.6852 18.2625 18.0931 18.7336 17.3826 19.087C18.3891 19.3815 19.1588 19.9115 19.6325 20.6182C20.1062 21.3249 20.4022 22.2083 20.4022 23.2095C20.4022 24.034 20.2246 24.7407 19.9285 25.3296C19.6325 25.9186 19.1588 26.4486 18.626 26.802C18.0931 27.1553 17.4418 27.4498 16.7313 27.6265C16.0208 27.8031 15.3103 27.9209 14.5998 27.9209H6.66602V11.6665H14.4222ZM13.9486 18.2625C14.5998 18.2625 15.1327 18.0858 15.5472 17.7914C15.9616 17.4969 16.1392 16.9669 16.1392 16.319C16.1392 15.9657 16.08 15.6123 15.9616 15.3768C15.8432 15.1412 15.6656 14.9645 15.4287 14.7878C15.1919 14.67 14.9551 14.5523 14.659 14.4934C14.363 14.4345 14.067 14.4345 13.7117 14.4345H10.2777V18.2625H13.9486ZM14.1262 25.2119C14.4814 25.2119 14.8367 25.153 15.1327 25.0941C15.4287 25.0352 15.7248 24.9174 15.9616 24.7407C16.1984 24.564 16.3761 24.3874 16.5537 24.0929C16.6721 23.7984 16.7905 23.4451 16.7905 23.0328C16.7905 22.2083 16.5537 21.6194 16.08 21.2071C15.6064 20.8538 14.9551 20.6771 14.1854 20.6771H10.2777V25.2119H14.1262ZM25.5533 25.153C26.0269 25.6241 26.7374 25.8597 27.6847 25.8597C28.336 25.8597 28.9281 25.683 29.4018 25.3885C29.8754 25.0352 30.1715 24.6818 30.2899 24.3285H33.191C32.7174 25.7419 32.0069 26.7431 31.0596 27.3909C30.1122 27.9798 28.9873 28.3332 27.6255 28.3332C26.6782 28.3332 25.8493 28.1565 25.0796 27.862C24.3099 27.5676 23.7178 27.1553 23.1849 26.5664C22.6521 26.0364 22.2376 25.3885 22.0008 24.6229C21.7048 23.8573 21.5863 23.0328 21.5863 22.0905C21.5863 21.2071 21.7048 20.3826 22.0008 19.617C22.2968 18.8514 22.7113 18.2036 23.2442 17.6147C23.777 17.0846 24.4283 16.6135 25.1388 16.319C25.9085 16.0246 26.6782 15.8479 27.6255 15.8479C28.6321 15.8479 29.5202 16.0246 30.2899 16.4368C31.0596 16.8491 31.6516 17.3202 32.1253 18.0269C32.599 18.6747 32.9542 19.4404 33.191 20.2649C33.3095 21.0894 33.3687 21.9139 33.3095 22.8561H24.7243C24.7243 23.7984 25.0796 24.6818 25.5533 25.153ZM29.2833 18.9692C28.8689 18.557 28.2176 18.3214 27.4479 18.3214C26.915 18.3214 26.5006 18.4392 26.1453 18.6159C25.7901 18.7925 25.5533 19.0281 25.3164 19.2637C25.0796 19.4992 24.9612 19.7937 24.902 20.0882C24.8428 20.3826 24.7836 20.6182 24.7836 20.8538H30.1122C29.9938 19.9704 29.6978 19.3815 29.2833 18.9692ZM24.0731 12.7855H30.7043V14.3756H24.0731V12.7855Z" fill="white"/>
</g>
<rect x="0.5" y="0.5" width="39" height="39" stroke="black" stroke-opacity="0.1"/>
<defs>
<clipPath id="clip0_173_700">
<rect width="40" height="40" fill="white"/>
</clipPath>
</defs>
</svg>
