<svg width="40" height="40" viewBox="0 0 40 40" fill="none" xmlns="http://www.w3.org/2000/svg">
<g clip-path="url(#clip0_173_697)">
<path d="M40 0H0V40H40V0Z" fill="#2867B2"/>
<path d="M30.6523 7.5H9.3477C8.32816 7.5 7.5 8.30338 7.5 9.2904V30.7096C7.5 31.6999 8.32816 32.5 9.3477 32.5H30.6523C31.6718 32.5 32.5 31.6966 32.5 30.7096V9.2904C32.5 8.3001 31.6718 7.5 30.6523 7.5ZM15.0789 28.4306H11.3043V17.1406H15.0789V28.4306ZM13.1916 15.5994H13.1685C11.9015 15.5994 11.0832 14.7337 11.0832 13.6483C11.0832 12.563 11.9279 11.6973 13.218 11.6973C14.5081 11.6973 15.3032 12.54 15.3296 13.6483C15.3296 14.7305 14.5114 15.5994 13.1949 15.5994H13.1916ZM28.6957 28.4306H24.9211V22.3905C24.9211 20.8722 24.3734 19.836 23.0075 19.836C21.9648 19.836 21.3445 20.5345 21.0707 21.21C20.9717 21.4527 20.9453 21.7871 20.9453 22.1249V28.4306H17.1707C17.1707 28.4306 17.2202 18.1998 17.1707 17.1406H20.9453V18.7408C21.4468 17.9702 22.3443 16.8783 24.347 16.8783C26.8315 16.8783 28.6957 18.4916 28.6957 21.9609V28.4339V28.4306Z" fill="white"/>
</g>
<rect x="0.5" y="0.5" width="39" height="39" stroke="black" stroke-opacity="0.1"/>
<defs>
<clipPath id="clip0_173_697">
<rect width="40" height="40" fill="white"/>
</clipPath>
</defs>
</svg>
