<svg width="1187" height="634" viewBox="0 0 1187 634" fill="none" xmlns="http://www.w3.org/2000/svg">
<path fill-rule="evenodd" clip-rule="evenodd" d="M1174.55 317.001L1176.53 320.116L1178.34 323.257L1179.99 326.419L1181.46 329.601L1182.75 332.8L1183.88 336.014L1184.83 339.239L1185.61 342.473L1186.21 345.714L1186.64 348.959L1186.91 352.206L1187 355.452L1186.93 358.695L1186.69 361.932L1186.29 365.162L1185.73 368.381L1185.02 371.59L1184.15 374.784L1183.14 377.963L1181.98 381.126L1180.69 384.269L1179.25 387.393L1177.69 390.495L1176 393.575L1174.2 396.632L1172.27 399.664L1170.24 402.672L1168.1 405.653L1165.86 408.609L1163.53 411.538L1161.1 414.44L1158.59 417.316L1156 420.164L1153.34 422.986L1150.6 425.781L1147.8 428.549L1144.93 431.292L1142.01 434.008L1139.03 436.699L1136.01 439.364L1132.93 442.005L1129.81 444.622L1126.65 447.215L1123.45 449.785L1120.21 452.331L1116.93 454.855L1113.62 457.356L1110.28 459.834L1106.9 462.29L1103.49 464.724L1100.05 467.136L1096.58 469.525L1093.08 471.893L1089.55 474.239L1085.99 476.563L1082.4 478.864L1078.78 481.144L1075.14 483.402L1071.46 485.637L1067.75 487.849L1064.02 490.039L1060.25 492.206L1056.46 494.349L1052.64 496.469L1048.78 498.564L1044.9 500.635L1040.99 502.681L1037.04 504.702L1033.07 506.697L1029.06 508.665L1025.02 510.606L1020.95 512.52L1016.85 514.406L1012.72 516.263L1008.55 518.091L1004.36 519.89L1000.13 521.658L995.872 523.395L991.582 525.101L987.261 526.776L982.91 528.418L978.53 530.027L974.119 531.604L969.68 533.147L965.212 534.656L960.717 536.132L956.196 537.573L951.648 538.98L947.076 540.353L942.479 541.691L937.86 542.996L933.218 544.266L928.556 545.502L923.874 546.704L919.174 547.873L914.456 549.009L909.722 550.113L904.974 551.186L900.212 552.228L895.439 553.241L890.656 554.227L885.863 555.185L881.063 556.118L876.257 557.028L871.445 557.915L866.63 558.783L861.812 559.632L856.992 560.465L852.17 561.283L847.349 562.089L842.527 562.885L837.706 563.673L832.886 564.454L828.066 565.232L823.247 566.008L818.429 566.785L813.611 567.564L808.792 568.348L803.972 569.138L799.149 569.937L794.323 570.746L789.492 571.568L784.656 572.403L779.811 573.255L774.957 574.124L770.092 575.011L765.213 575.918L760.319 576.847L755.407 577.797L750.475 578.771L745.521 579.769L740.541 580.791L735.534 581.838L730.496 582.911L725.426 584.008L720.319 585.132L715.174 586.28L709.988 587.454L704.758 588.652L699.48 589.873L694.154 591.118L688.775 592.385L683.341 593.673L677.851 594.98L672.3 596.305L666.687 597.647L661.01 599.004L655.267 600.373L649.455 601.752L643.574 603.14L637.62 604.535L631.593 605.932L625.492 607.33L619.315 608.727L613.061 610.118L606.73 611.502L600.322 612.875L593.835 614.234L587.271 615.576L580.629 616.897L573.909 618.195L567.113 619.465L560.241 620.705L553.294 621.911L546.274 623.079L539.183 624.207L532.023 625.29L524.794 626.326L517.501 627.31L510.145 628.24L502.73 629.111L495.258 629.922L487.733 630.668L480.158 631.347L472.537 631.955L464.873 632.49L457.171 632.948L449.435 633.327L441.67 633.624L433.879 633.837L426.068 633.963L418.241 634L410.404 633.946L402.56 633.799L394.716 633.557L386.876 633.218L379.046 632.782L371.23 632.246L363.434 631.609L355.663 630.872L347.922 630.033L340.214 629.092L332.546 628.049L324.92 626.905L317.342 625.659L309.814 624.313L302.342 622.867L294.928 621.322L287.576 619.68L280.289 617.941L273.07 616.107L265.921 614.18L258.845 612.162L251.845 610.053L244.922 607.856L238.079 605.572L231.317 603.205L224.637 600.755L218.041 598.224L211.531 595.615L205.106 592.93L198.769 590.171L192.519 587.34L186.358 584.439L180.285 581.469L174.301 578.434L168.408 575.334L162.604 572.173L156.889 568.951L151.266 565.67L145.732 562.333L140.289 558.94L134.937 555.494L129.677 551.996L124.507 548.447L119.429 544.85L114.444 541.204L109.551 537.512L104.752 533.774L100.047 529.992L95.4381 526.167L90.9258 522.299L86.5116 518.39L82.1968 514.441L77.9827 510.451L73.8705 506.423L69.8616 502.358L65.9571 498.256L62.1581 494.118L58.4658 489.946L54.8812 485.74L51.4053 481.502L48.0391 477.232L44.7834 472.932L41.6391 468.603L38.607 464.246L35.6878 459.862L32.882 455.453L30.1903 451.018L27.6131 446.561L25.1508 442.081L22.8039 437.58L20.5725 433.059L18.4568 428.52L16.457 423.963L14.5731 419.39L12.8051 414.802L11.1529 410.201L9.61631 405.586L8.19517 400.96L6.88919 396.324L5.69803 391.679L4.62131 387.025L3.65862 382.365L2.80948 377.699L2.0734 373.029L1.44984 368.354L0.938255 363.678L0.538065 359L0.248686 354.322L0.0695286 349.644L0 344.968L0.039515 340.294L0.1875 335.625L0.443399 330.959L0.806681 326.3L1.27684 321.647L1.85341 317.001L2.53596 312.363L3.32411 307.735L4.21748 303.117L5.21575 298.51L6.31861 293.915L7.52581 289.332L8.83713 284.764L10.2524 280.21L11.7715 275.672L13.3944 271.15L15.121 266.645L16.9515 262.159L18.8859 257.693L20.9243 253.246L23.067 248.821L25.3141 244.418L27.666 240.039L30.123 235.684L32.6854 231.355L35.3536 227.053L38.1278 222.778L41.0085 218.533L43.996 214.318L47.0906 210.134L50.2926 205.984L53.6022 201.867L57.0195 197.786L60.5447 193.742L64.1778 189.736L67.9187 185.769L71.767 181.843L75.7227 177.959L79.785 174.119L83.9534 170.324L88.2271 166.575L92.605 162.873L97.086 159.22L101.669 155.617L106.351 152.064L111.132 148.564L116.009 145.116L120.98 141.723L126.043 138.384L131.193 135.1L136.429 131.872L141.747 128.699L147.143 125.584L152.613 122.524L158.155 119.521L163.764 116.574L169.436 113.684L175.168 110.849L180.955 108.07L186.795 105.346L192.684 102.677L198.617 100.062L204.591 97.4997L210.604 94.9905L216.65 92.5331L222.727 90.1267L228.831 87.7702L234.959 85.4626L241.108 83.2028L247.275 80.9897L253.457 78.822L259.65 76.6985L265.852 74.6178L272.061 72.5787L278.274 70.5797L284.488 68.6194L290.702 66.6964L296.913 64.8092L303.119 62.9564L309.319 61.1366L315.511 59.3482L321.693 57.5898L327.864 55.86L334.024 54.1573L340.17 52.4805L346.303 50.8281L352.422 49.1989L358.525 47.5916L364.614 46.0051L370.688 44.4383L376.746 42.89L382.79 41.3595L388.819 39.8457L394.834 38.3479L400.835 36.8655L406.823 35.3978L412.799 33.9444L418.765 32.505L424.72 31.0792L430.667 29.6671L436.606 28.2685L442.539 26.8839L448.467 25.5135L454.392 24.158L460.316 22.8184L466.241 21.4956L472.168 20.1909L478.098 18.9056L484.035 17.6415L489.979 16.4002L495.932 15.1837L501.896 13.9942L507.872 12.8338L513.861 11.705L519.866 10.6103L525.886 9.5522L531.923 8.53356L537.977 7.55716L544.05 6.6259L550.141 5.74276L556.25 4.91073L562.378 4.13288L568.524 3.41227L574.688 2.75198L580.868 2.15507L587.065 1.6246L593.275 1.16356L599.499 0.774892L605.734 0.461475L611.978 0.22609L618.23 0.0714124L624.485 0L630.743 0.0142718L637 0.116494L643.252 0.308765L649.497 0.593L655.732 0.970915L661.952 1.44401L668.153 2.01357L674.333 2.68063L680.486 3.44597L686.61 4.31011L692.699 5.27329L698.75 6.33547L704.758 7.4963L710.719 8.75518L716.629 10.1113L722.485 11.5636L728.281 13.111L734.014 14.7521L739.68 16.4854L745.276 18.3091L750.797 20.2215L756.241 22.2205L761.603 24.304L766.881 26.4695L772.071 28.7146L777.171 31.0367L782.177 33.433L787.088 35.9006L791.901 38.4366L796.614 41.0379L801.225 43.7012L805.733 46.4232L810.135 49.2006L814.431 52.0298L818.62 54.9074L822.701 57.8298L826.673 60.7934L830.537 63.7945L834.293 66.8294L837.94 69.8944L841.48 72.9859L844.912 76.1002L848.239 79.2335L851.461 82.3822L854.579 85.5428L857.596 88.7116L860.514 91.8851L863.334 95.0599L866.059 98.2326L868.692 101.4L871.234 104.559L873.69 107.706L876.062 110.838L878.353 113.953L880.567 117.047L882.707 120.119L884.778 123.165L886.781 126.183L888.722 129.171L890.605 132.127L892.432 135.048L894.209 137.934L895.94 140.782L897.628 143.591L899.28 146.358L900.898 149.082L902.488 151.762L904.055 154.397L905.605 156.984L907.141 159.523L908.67 162.012L910.195 164.452L911.724 166.84L913.26 169.177L914.809 171.461L916.376 173.693L917.966 175.873L919.585 177.999L921.236 180.074L922.925 182.097L924.656 184.068L926.435 185.988L928.264 187.859L930.149 189.681L932.094 191.456L934.102 193.184L936.176 194.867L938.32 196.508L940.538 198.107L942.831 199.667L945.203 201.19L947.656 202.678L950.191 204.133L952.811 205.557L955.517 206.953L958.31 208.324L961.192 209.672L964.162 211L967.222 212.311L970.372 213.606L973.611 214.889L976.939 216.163L980.356 217.431L983.862 218.695L987.454 219.957L991.133 221.221L994.897 222.49L998.743 223.766L1002.67 225.051L1006.68 226.35L1010.76 227.664L1014.92 228.996L1019.14 230.349L1023.43 231.725L1027.78 233.129L1032.19 234.561L1036.65 236.024L1041.15 237.521L1045.7 239.055L1050.28 240.627L1054.89 242.24L1059.52 243.895L1064.17 245.595L1068.83 247.342L1073.49 249.136L1078.15 250.979L1082.8 252.874L1087.43 254.82L1092.03 256.818L1096.6 258.871L1101.13 260.977L1105.61 263.138L1110.03 265.354L1114.4 267.626L1118.69 269.952L1122.9 272.332L1127.03 274.767L1131.07 277.255L1135.01 279.797L1138.84 282.39L1142.56 285.033L1146.17 287.727L1149.65 290.468L1153 293.256L1156.21 296.088L1159.29 298.964L1162.22 301.88L1165 304.835L1167.63 307.827L1170.1 310.854L1172.41 313.912L1174.55 317.001Z" fill="#D9D9D9" fill-opacity="0.4"/>
</svg>
