<svg width="40" height="40" viewBox="0 0 40 40" fill="none" xmlns="http://www.w3.org/2000/svg">
<g clip-path="url(#clip0_173_701)">
<path d="M40 0H0V40H40V0Z" fill="#231E1B"/>
<path fill-rule="evenodd" clip-rule="evenodd" d="M19.9586 6.6665C12.6191 6.6665 6.66602 12.5944 6.66602 19.9027C6.66602 25.7494 10.4988 30.7028 15.718 32.4893C16.3704 32.5705 16.615 32.1645 16.615 31.8397C16.615 31.5149 16.615 30.7028 16.615 29.566C12.9453 30.378 12.1298 27.7795 12.1298 27.7795C11.559 26.2366 10.6619 25.8306 10.6619 25.8306C9.4387 25.0186 10.7435 25.0186 10.7435 25.0186C12.0483 25.0998 12.7822 26.399 12.7822 26.399C14.0055 28.4291 15.8811 27.8607 16.615 27.5359C16.6966 26.6427 17.1043 26.0742 17.4305 25.7494C14.4948 25.4246 11.3959 24.2877 11.3959 19.1719C11.3959 17.7102 11.8852 16.5734 12.7822 15.5989C12.7007 15.3553 12.2114 13.9749 12.9453 12.1884C12.9453 12.1884 14.087 11.8636 16.615 13.5688C17.6752 13.244 18.8169 13.1628 19.9586 13.1628C21.1003 13.1628 22.242 13.3252 23.3021 13.5688C25.8301 11.8636 26.9718 12.1884 26.9718 12.1884C27.7058 13.9749 27.2165 15.3553 27.1349 15.6801C27.9504 16.5734 28.5213 17.7914 28.5213 19.2531C28.5213 24.3689 25.4224 25.4246 22.4866 25.7494C22.9759 26.1554 23.3836 26.9675 23.3836 28.1855C23.3836 29.972 23.3836 31.3525 23.3836 31.8397C23.3836 32.1645 23.6283 32.5705 24.2807 32.4893C29.5814 30.7028 33.3327 25.7494 33.3327 19.9027C33.2511 12.5944 27.298 6.6665 19.9586 6.6665Z" fill="white"/>
</g>
<rect x="0.5" y="0.5" width="39" height="39" stroke="black" stroke-opacity="0.1"/>
<defs>
<clipPath id="clip0_173_701">
<rect width="40" height="40" fill="white"/>
</clipPath>
</defs>
</svg>
