<svg width="40" height="41" viewBox="0 0 40 41" fill="none" xmlns="http://www.w3.org/2000/svg">
<g clip-path="url(#clip0_210_192)">
<rect width="40" height="40" transform="translate(0 0.39624)" fill="#101010"/>
<path d="M19.5553 27.4185L16.822 30.1296C15.9902 30.9507 14.8685 31.411 13.6998 31.411C12.531 31.411 11.4093 30.9507 10.5775 30.1296C10.1721 29.725 9.85034 29.2444 9.63083 28.7154C9.41133 28.1863 9.29834 27.6191 9.29834 27.0463C9.29834 26.4735 9.41133 25.9063 9.63083 25.3772C9.85034 24.8481 10.1721 24.3675 10.5775 23.9629L15.7887 18.7963C16.6204 17.9752 17.7421 17.5149 18.9109 17.5149C20.0796 17.5149 21.2013 17.9752 22.0331 18.7963C22.5624 19.3222 22.9454 19.9771 23.1442 20.6963C23.2536 20.6061 23.354 20.5056 23.4442 20.3963L24.8776 18.9741C24.5566 18.306 24.1245 17.6974 23.5998 17.1741C22.3516 15.9391 20.6667 15.2465 18.9109 15.2465C17.1551 15.2465 15.4701 15.9391 14.222 17.1741L8.99977 22.3852C8.38466 22.9956 7.89645 23.7217 7.56328 24.5217C7.23012 25.3217 7.05859 26.1797 7.05859 27.0463C7.05859 27.9129 7.23012 28.7709 7.56328 29.5709C7.89645 30.3709 8.38466 31.097 8.99977 31.7074C10.2479 32.9423 11.9328 33.635 13.6887 33.635C15.4445 33.635 17.1294 32.9423 18.3776 31.7074L22.4331 27.6852H21.8776C21.0951 27.6989 20.3143 27.6092 19.5553 27.4185Z" fill="#F4F4F4"/>
<path d="M31.7893 9.08507C30.5411 7.85014 28.8562 7.15747 27.1004 7.15747C25.3446 7.15747 23.6596 7.85014 22.4115 9.08507L18.3559 13.1073H18.9004C19.6885 13.1071 20.4732 13.2117 21.2337 13.4184L23.9671 10.7073C24.7988 9.88625 25.9205 9.42589 27.0893 9.42589C28.258 9.42589 29.3797 9.88625 30.2115 10.7073C30.617 11.1119 30.9387 11.5925 31.1582 12.1215C31.3777 12.6506 31.4907 13.2178 31.4907 13.7906C31.4907 14.3634 31.3777 14.9306 31.1582 15.4597C30.9387 15.9888 30.617 16.4694 30.2115 16.874L25.0004 22.0406C24.1686 22.8617 23.0469 23.322 21.8782 23.322C20.7094 23.322 19.5877 22.8617 18.7559 22.0406C18.2266 21.5147 17.8436 20.8598 17.6448 20.1406C17.5336 20.2162 17.4295 20.3018 17.3337 20.3962L15.9004 21.8184C16.2213 22.4864 16.6534 23.0951 17.1782 23.6184C18.4263 24.8533 20.1112 25.546 21.8671 25.546C23.6229 25.546 25.3078 24.8533 26.5559 23.6184L31.7671 18.4517C32.3808 17.8406 32.8679 17.1142 33.2002 16.3143C33.5325 15.5144 33.7036 14.6568 33.7036 13.7906C33.7036 12.9245 33.5325 12.0668 33.2002 11.2669C32.8679 10.4671 32.3808 9.74068 31.7671 9.12951L31.7893 9.08507Z" fill="#F4F4F4"/>
</g>
<defs>
<clipPath id="clip0_210_192">
<rect width="40" height="40" fill="white" transform="translate(0 0.39624)"/>
</clipPath>
</defs>
</svg>
