<svg width="40" height="40" viewBox="0 0 40 40" fill="none" xmlns="http://www.w3.org/2000/svg">
<g clip-path="url(#clip0_202_302)">
<path d="M3.33398 8.33342V31.6668C3.33398 33.1001 5.02065 33.8634 6.09898 32.9218L19.4323 21.2551C19.6113 21.0987 19.7548 20.9057 19.8531 20.6893C19.9514 20.4728 20.0023 20.2378 20.0023 20.0001C20.0023 19.7624 19.9514 19.5274 19.8531 19.3109C19.7548 19.0944 19.6113 18.9015 19.4323 18.7451L6.09898 7.07842C5.02065 6.13676 3.33398 6.90176 3.33398 8.33342ZM21.6673 8.33342V31.6668C21.6673 33.1001 23.354 33.8634 24.4323 32.9218L37.7657 21.2551C37.9447 21.0987 38.0881 20.9057 38.1865 20.6893C38.2848 20.4728 38.3356 20.2378 38.3356 20.0001C38.3356 19.7624 38.2848 19.5274 38.1865 19.3109C38.0881 19.0944 37.9447 18.9015 37.7657 18.7451L24.4323 7.07842C23.354 6.13676 21.6673 6.90176 21.6673 8.33342Z" fill="#101010"/>
</g>
<defs>
<clipPath id="clip0_202_302">
<rect width="40" height="40" fill="white"/>
</clipPath>
</defs>
</svg>
