<svg width="40" height="40" viewBox="0 0 40 40" fill="none" xmlns="http://www.w3.org/2000/svg">
<path d="M20 5.66265C24.6386 5.66265 25.2711 5.66265 27.1687 5.66265C28.8554 5.66265 29.6988 6.08434 30.3313 6.29518C31.1747 6.71687 31.8072 6.92771 32.4398 7.56024C33.0723 8.19277 33.494 8.8253 33.7048 9.66868C33.9157 10.3012 34.1265 11.1446 34.3374 12.8313C34.3374 14.7289 34.3374 15.1506 34.3374 20C34.3374 24.8494 34.3374 25.2711 34.3374 27.1687C34.3374 28.8554 33.9157 29.6988 33.7048 30.3313C33.2831 31.1747 33.0723 31.8072 32.4398 32.4398C31.8072 33.0723 31.1747 33.494 30.3313 33.7048C29.6988 33.9157 28.8554 34.1265 27.1687 34.3374C25.2711 34.3374 24.8494 34.3374 20 34.3374C15.1506 34.3374 14.7289 34.3374 12.8313 34.3374C11.1446 34.3374 10.3012 33.9157 9.66868 33.7048C8.8253 33.2831 8.19277 33.0723 7.56024 32.4398C6.92771 31.8072 6.50602 31.1747 6.29518 30.3313C6.08434 29.6988 5.87349 28.8554 5.66265 27.1687C5.66265 25.2711 5.66265 24.8494 5.66265 20C5.66265 15.1506 5.66265 14.7289 5.66265 12.8313C5.66265 11.1446 6.08434 10.3012 6.29518 9.66868C6.71687 8.8253 6.92771 8.19277 7.56024 7.56024C8.19277 6.92771 8.8253 6.50602 9.66868 6.29518C10.3012 6.08434 11.1446 5.87349 12.8313 5.66265C14.7289 5.66265 15.3614 5.66265 20 5.66265ZM20 2.5C15.1506 2.5 14.7289 2.5 12.8313 2.5C10.9337 2.5 9.66868 2.92169 8.61446 3.34337C7.56024 3.76506 6.50603 4.39759 5.45181 5.45181C4.39759 6.50603 3.9759 7.3494 3.34337 8.61446C2.92169 9.66868 2.71084 10.9337 2.5 12.8313C2.5 14.7289 2.5 15.3614 2.5 20C2.5 24.8494 2.5 25.2711 2.5 27.1687C2.5 29.0663 2.92169 30.3313 3.34337 31.3855C3.76506 32.4398 4.39759 33.494 5.45181 34.5482C6.50603 35.6024 7.3494 36.0241 8.61446 36.6566C9.66868 37.0783 10.9337 37.2892 12.8313 37.5C14.7289 37.5 15.3614 37.5 20 37.5C24.6386 37.5 25.2711 37.5 27.1687 37.5C29.0663 37.5 30.3313 37.0783 31.3855 36.6566C32.4398 36.2349 33.494 35.6024 34.5482 34.5482C35.6024 33.494 36.0241 32.6506 36.6566 31.3855C37.0783 30.3313 37.2892 29.0663 37.5 27.1687C37.5 25.2711 37.5 24.6386 37.5 20C37.5 15.3614 37.5 14.7289 37.5 12.8313C37.5 10.9337 37.0783 9.66868 36.6566 8.61446C36.2349 7.56024 35.6024 6.50603 34.5482 5.45181C33.494 4.39759 32.6506 3.9759 31.3855 3.34337C30.3313 2.92169 29.0663 2.71084 27.1687 2.5C25.2711 2.5 24.8494 2.5 20 2.5Z" fill="#F4F4F4"/>
<path d="M20 10.9337C14.9398 10.9337 10.9337 14.9398 10.9337 20C10.9337 25.0602 14.9398 29.0663 20 29.0663C25.0602 29.0663 29.0663 25.0602 29.0663 20C29.0663 14.9398 25.0602 10.9337 20 10.9337ZM20 25.9036C16.8374 25.9036 14.0964 23.3735 14.0964 20C14.0964 16.8374 16.6265 14.0964 20 14.0964C23.1627 14.0964 25.9036 16.6265 25.9036 20C25.9036 23.1627 23.1627 25.9036 20 25.9036Z" fill="#F4F4F4"/>
<path d="M29.2771 12.8313C30.4416 12.8313 31.3855 11.8873 31.3855 10.7229C31.3855 9.55844 30.4416 8.61446 29.2771 8.61446C28.1127 8.61446 27.1687 9.55844 27.1687 10.7229C27.1687 11.8873 28.1127 12.8313 29.2771 12.8313Z" fill="#F4F4F4"/>
<path d="M20 5.66265C24.6386 5.66265 25.2711 5.66265 27.1687 5.66265C28.8554 5.66265 29.6988 6.08434 30.3313 6.29518C31.1747 6.71687 31.8072 6.92771 32.4398 7.56024C33.0723 8.19277 33.494 8.8253 33.7048 9.66868C33.9157 10.3012 34.1265 11.1446 34.3374 12.8313C34.3374 14.7289 34.3374 15.1506 34.3374 20C34.3374 24.8494 34.3374 25.2711 34.3374 27.1687C34.3374 28.8554 33.9157 29.6988 33.7048 30.3313C33.2831 31.1747 33.0723 31.8072 32.4398 32.4398C31.8072 33.0723 31.1747 33.494 30.3313 33.7048C29.6988 33.9157 28.8554 34.1265 27.1687 34.3374C25.2711 34.3374 24.8494 34.3374 20 34.3374C15.1506 34.3374 14.7289 34.3374 12.8313 34.3374C11.1446 34.3374 10.3012 33.9157 9.66868 33.7048C8.8253 33.2831 8.19277 33.0723 7.56024 32.4398C6.92771 31.8072 6.50602 31.1747 6.29518 30.3313C6.08434 29.6988 5.87349 28.8554 5.66265 27.1687C5.66265 25.2711 5.66265 24.8494 5.66265 20C5.66265 15.1506 5.66265 14.7289 5.66265 12.8313C5.66265 11.1446 6.08434 10.3012 6.29518 9.66868C6.71687 8.8253 6.92771 8.19277 7.56024 7.56024C8.19277 6.92771 8.8253 6.50602 9.66868 6.29518C10.3012 6.08434 11.1446 5.87349 12.8313 5.66265C14.7289 5.66265 15.3614 5.66265 20 5.66265ZM20 2.5C15.1506 2.5 14.7289 2.5 12.8313 2.5C10.9337 2.5 9.66868 2.92169 8.61446 3.34337C7.56024 3.76506 6.50603 4.39759 5.45181 5.45181C4.39759 6.50603 3.9759 7.3494 3.34337 8.61446C2.92169 9.66868 2.71084 10.9337 2.5 12.8313C2.5 14.7289 2.5 15.3614 2.5 20C2.5 24.8494 2.5 25.2711 2.5 27.1687C2.5 29.0663 2.92169 30.3313 3.34337 31.3855C3.76506 32.4398 4.39759 33.494 5.45181 34.5482C6.50603 35.6024 7.3494 36.0241 8.61446 36.6566C9.66868 37.0783 10.9337 37.2892 12.8313 37.5C14.7289 37.5 15.3614 37.5 20 37.5C24.6386 37.5 25.2711 37.5 27.1687 37.5C29.0663 37.5 30.3313 37.0783 31.3855 36.6566C32.4398 36.2349 33.494 35.6024 34.5482 34.5482C35.6024 33.494 36.0241 32.6506 36.6566 31.3855C37.0783 30.3313 37.2892 29.0663 37.5 27.1687C37.5 25.2711 37.5 24.6386 37.5 20C37.5 15.3614 37.5 14.7289 37.5 12.8313C37.5 10.9337 37.0783 9.66868 36.6566 8.61446C36.2349 7.56024 35.6024 6.50603 34.5482 5.45181C33.494 4.39759 32.6506 3.9759 31.3855 3.34337C30.3313 2.92169 29.0663 2.71084 27.1687 2.5C25.2711 2.5 24.8494 2.5 20 2.5Z" fill="#F4F4F4"/>
<path d="M20 10.9337C14.9398 10.9337 10.9337 14.9398 10.9337 20C10.9337 25.0602 14.9398 29.0663 20 29.0663C25.0602 29.0663 29.0663 25.0602 29.0663 20C29.0663 14.9398 25.0602 10.9337 20 10.9337ZM20 25.9036C16.8374 25.9036 14.0964 23.3735 14.0964 20C14.0964 16.8374 16.6265 14.0964 20 14.0964C23.1627 14.0964 25.9036 16.6265 25.9036 20C25.9036 23.1627 23.1627 25.9036 20 25.9036Z" fill="#F4F4F4"/>
<path d="M29.2771 12.8313C30.4416 12.8313 31.3855 11.8873 31.3855 10.7229C31.3855 9.55844 30.4416 8.61446 29.2771 8.61446C28.1127 8.61446 27.1687 9.55844 27.1687 10.7229C27.1687 11.8873 28.1127 12.8313 29.2771 12.8313Z" fill="#F4F4F4"/>
</svg>
