<svg width="40" height="40" viewBox="0 0 40 40" fill="none" xmlns="http://www.w3.org/2000/svg">
<path d="M34.9132 2.5H5.08678C3.65943 2.5 2.5 3.62474 2.5 5.00656V34.9934C2.5 36.3799 3.65943 37.5 5.08678 37.5H34.9132C36.3406 37.5 37.5 36.3753 37.5 34.9934V5.00656C37.5 3.62015 36.3406 2.5 34.9132 2.5ZM13.1104 31.8029H7.82599V15.9969H13.1104V31.8029ZM10.4682 13.8392H10.4359C8.66207 13.8392 7.5165 12.6272 7.5165 11.1077C7.5165 9.58814 8.69902 8.37618 10.5051 8.37618C12.3113 8.37618 13.4245 9.55601 13.4615 11.1077C13.4615 12.6226 12.3159 13.8392 10.4728 13.8392H10.4682ZM32.174 31.8029H26.8896V23.3467C26.8896 21.2211 26.1228 19.7705 24.2104 19.7705C22.7508 19.7705 21.8823 20.7483 21.4989 21.694C21.3604 22.0337 21.3234 22.502 21.3234 22.9748V31.8029H16.039C16.039 31.8029 16.1083 17.4797 16.039 15.9969H21.3234V18.2371C22.0255 17.1583 23.282 15.6296 26.0859 15.6296C29.5641 15.6296 32.174 17.8882 32.174 22.7453V31.8075V31.8029Z" fill="#F4F4F4"/>
</svg>
