<svg width="38" height="38" viewBox="0 0 38 38" fill="none" xmlns="http://www.w3.org/2000/svg">
<path fill-rule="evenodd" clip-rule="evenodd" d="M31.8245 6.16209C28.3779 2.72694 23.7945 0.835523 18.9107 0.833496C8.84676 0.833496 0.656852 8.983 0.652778 19.0016C0.650741 22.2036 1.49204 25.3296 3.09009 28.0847L0.5 37.5002L10.178 34.9742C12.8444 36.4227 15.847 37.1839 18.9026 37.1849H18.9107C28.9727 37.1849 37.1636 29.0344 37.1667 19.0168C37.1687 14.1616 35.2712 9.59725 31.8245 6.16311V6.16209ZM18.9107 34.1167H18.9046C16.1821 34.1167 13.5116 33.3879 11.1812 32.0114L10.6271 31.684L4.8837 33.1832L6.41657 27.6103L6.05602 27.0386C4.53741 24.6343 3.73481 21.8549 3.73583 19.0016C3.73889 10.6757 10.5467 3.90172 18.9169 3.90172C22.9695 3.90375 26.7798 5.47587 29.6449 8.33124C32.51 11.1856 34.0867 14.9806 34.0846 19.0148C34.0806 27.3417 27.2738 34.1157 18.9107 34.1157V34.1167ZM27.2341 22.8067C26.7778 22.5797 24.535 21.4819 24.1164 21.3299C23.6978 21.1779 23.3943 21.1028 23.0907 21.5569C22.7872 22.0121 21.9123 23.0348 21.6465 23.3369C21.3806 23.6399 21.1138 23.6774 20.6585 23.4504C20.2022 23.2233 18.7325 22.7439 16.9898 21.1971C15.6342 19.9929 14.7185 18.507 14.4517 18.0518C14.1858 17.5967 14.4231 17.3514 14.6513 17.1254C14.856 16.9217 15.1076 16.5953 15.3357 16.3297C15.5639 16.0652 15.6393 15.8746 15.792 15.5725C15.9448 15.2695 15.8684 15.0049 15.7544 14.7768C15.6403 14.5498 14.7287 12.3148 14.3478 11.4066C13.977 10.5217 13.6012 10.6413 13.3221 10.6271C13.0563 10.6139 12.7518 10.6119 12.4472 10.6119C12.1427 10.6119 11.6487 10.7254 11.2301 11.1795C10.8115 11.6346 9.63305 12.7324 9.63305 14.9664C9.63305 17.2004 11.2678 19.3594 11.4959 19.6635C11.7241 19.9666 14.7134 24.5522 19.2886 26.5186C20.3764 26.9869 21.2268 27.2656 21.8899 27.4755C22.9828 27.8211 23.9769 27.7725 24.7631 27.6559C25.6391 27.5251 27.4622 26.5571 27.8421 25.4969C28.222 24.4366 28.222 23.5274 28.108 23.3379C27.9939 23.1483 27.6894 23.0348 27.2331 22.8078V22.8057L27.2341 22.8067Z" fill="#F4F4F4"/>
</svg>
