<svg width="40" height="41" viewBox="0 0 40 41" fill="none" xmlns="http://www.w3.org/2000/svg">
<g clip-path="url(#clip0_210_184)">
<rect y="0.39624" width="40" height="40" fill="#1157FF"/>
<path d="M14.4222 12.0629C15.1919 12.0629 15.9024 12.1218 16.5537 12.2984C17.205 12.4162 17.7378 12.6518 18.2115 12.9463C18.6852 13.2407 19.0404 13.653 19.2772 14.183C19.5141 14.713 19.6325 15.3609 19.6325 16.0676C19.6325 16.8921 19.4549 17.5988 19.0404 18.1288C18.6852 18.6589 18.0931 19.13 17.3826 19.4834C18.3891 19.7778 19.1588 20.3079 19.6325 21.0146C20.1062 21.7213 20.4022 22.6047 20.4022 23.6059C20.4022 24.4304 20.2246 25.1371 19.9285 25.726C19.6325 26.3149 19.1588 26.845 18.626 27.1983C18.0931 27.5517 17.4418 27.8461 16.7313 28.0228C16.0208 28.1995 15.3103 28.3173 14.5998 28.3173H6.66602V12.0629H14.4222ZM13.9486 18.6589C14.5998 18.6589 15.1327 18.4822 15.5472 18.1877C15.9616 17.8933 16.1392 17.3632 16.1392 16.7154C16.1392 16.362 16.08 16.0087 15.9616 15.7731C15.8432 15.5375 15.6656 15.3609 15.4287 15.1842C15.1919 15.0664 14.9551 14.9486 14.659 14.8897C14.363 14.8308 14.067 14.8308 13.7117 14.8308H10.2777V18.6589H13.9486ZM14.1262 25.6082C14.4814 25.6082 14.8367 25.5493 15.1327 25.4904C15.4287 25.4315 15.7248 25.3138 15.9616 25.1371C16.1984 24.9604 16.3761 24.7837 16.5537 24.4893C16.6721 24.1948 16.7905 23.8414 16.7905 23.4292C16.7905 22.6047 16.5537 22.0158 16.08 21.6035C15.6064 21.2501 14.9551 21.0735 14.1854 21.0735H10.2777V25.6082H14.1262ZM25.5533 25.5493C26.0269 26.0205 26.7374 26.256 27.6847 26.256C28.336 26.256 28.9281 26.0794 29.4018 25.7849C29.8754 25.4315 30.1715 25.0782 30.2899 24.7248H33.191C32.7174 26.1383 32.0069 27.1394 31.0596 27.7872C30.1122 28.3762 28.9873 28.7295 27.6255 28.7295C26.6782 28.7295 25.8493 28.5529 25.0796 28.2584C24.3099 27.9639 23.7178 27.5517 23.1849 26.9627C22.6521 26.4327 22.2376 25.7849 22.0008 25.0193C21.7048 24.2537 21.5863 23.4292 21.5863 22.4869C21.5863 21.6035 21.7048 20.779 22.0008 20.0134C22.2968 19.2478 22.7113 18.6 23.2442 18.011C23.777 17.481 24.4283 17.0099 25.1388 16.7154C25.9085 16.4209 26.6782 16.2443 27.6255 16.2443C28.6321 16.2443 29.5202 16.4209 30.2899 16.8332C31.0596 17.2454 31.6516 17.7166 32.1253 18.4233C32.599 19.0711 32.9542 19.8367 33.191 20.6612C33.3095 21.4857 33.3687 22.3102 33.3095 23.2525H24.7243C24.7243 24.1948 25.0796 25.0782 25.5533 25.5493ZM29.2833 19.3656C28.8689 18.9533 28.2176 18.7178 27.4479 18.7178C26.915 18.7178 26.5006 18.8355 26.1453 19.0122C25.7901 19.1889 25.5533 19.4245 25.3164 19.66C25.0796 19.8956 24.9612 20.1901 24.902 20.4845C24.8428 20.779 24.7836 21.0146 24.7836 21.2501H30.1122C29.9938 20.3668 29.6978 19.7778 29.2833 19.3656ZM24.0731 13.1818H30.7043V14.7719H24.0731V13.1818Z" fill="white"/>
</g>
<rect x="0.5" y="0.89624" width="39" height="39" stroke="black" stroke-opacity="0.1"/>
<defs>
<clipPath id="clip0_210_184">
<rect y="0.39624" width="40" height="40" fill="white"/>
</clipPath>
</defs>
</svg>
