<svg width="12" height="12" viewBox="0 0 12 12" fill="none" xmlns="http://www.w3.org/2000/svg">
<g clip-path="url(#clip0_302_385)">
<path d="M11.002 9.50002L11.002 2.50002C11.002 2.07002 10.496 1.84102 10.1725 2.12352L6.17245 5.62352C6.11875 5.67045 6.07571 5.72833 6.04621 5.79327C6.01672 5.85821 6.00146 5.9287 6.00146 6.00002C6.00146 6.07134 6.01672 6.14184 6.04621 6.20678C6.07571 6.27172 6.11875 6.32959 6.17245 6.37652L10.1725 9.87652C10.496 10.159 11.002 9.92952 11.002 9.50002ZM5.50195 9.50002L5.50195 2.50002C5.50195 2.07002 4.99595 1.84102 4.67245 2.12352L0.672454 5.62352C0.61875 5.67045 0.575706 5.72833 0.546214 5.79327C0.516723 5.85821 0.501464 5.9287 0.501464 6.00002C0.501464 6.07134 0.516723 6.14184 0.546214 6.20678C0.575706 6.27172 0.61875 6.32959 0.672454 6.37652L4.67245 9.87652C4.99595 10.159 5.50195 9.92952 5.50195 9.50002Z" fill="#F4F4F4"/>
</g>
<defs>
<clipPath id="clip0_302_385">
<rect width="12" height="12" fill="white" transform="matrix(-1 0 0 -1 12 12)"/>
</clipPath>
</defs>
</svg>
