<svg width="12" height="12" viewBox="0 0 12 12" fill="none" xmlns="http://www.w3.org/2000/svg">
<g clip-path="url(#clip0_281_361)">
<path d="M0.998047 2.49998V9.49998C0.998047 9.92998 1.50405 10.159 1.82755 9.87648L5.82755 6.37648C5.88125 6.32955 5.92429 6.27167 5.95379 6.20673C5.98328 6.14179 5.99854 6.0713 5.99854 5.99998C5.99854 5.92866 5.98328 5.85816 5.95379 5.79322C5.92429 5.72828 5.88125 5.67041 5.82755 5.62348L1.82755 2.12348C1.50405 1.84098 0.998047 2.07048 0.998047 2.49998ZM6.49805 2.49998V9.49998C6.49805 9.92998 7.00405 10.159 7.32755 9.87648L11.3275 6.37648C11.3813 6.32955 11.4243 6.27167 11.4538 6.20673C11.4833 6.14179 11.4985 6.0713 11.4985 5.99998C11.4985 5.92866 11.4833 5.85816 11.4538 5.79322C11.4243 5.72828 11.3813 5.67041 11.3275 5.62348L7.32755 2.12348C7.00405 1.84098 6.49805 2.07048 6.49805 2.49998Z" fill="#F4F4F4"/>
</g>
<defs>
<clipPath id="clip0_281_361">
<rect width="12" height="12" fill="white"/>
</clipPath>
</defs>
</svg>
